<svg xmlns="http://www.w3.org/2000/svg" width="76" height="49" fill="#fff"><path d="M16.968 10.2c0 2.993-.685 5.218-2.056 6.675-1.362 1.45-3.465 2.173-6.3 2.173-2.654 0-4.67-.724-6.05-2.173-1.37-1.457-2.056-3.647-2.056-6.57V.065h5.647v10.448c0 1.197.22 2.12.664 2.77.45.642 1.093.963 1.926.963.84 0 1.48-.304 1.913-.9.442-.607.664-1.505.664-2.693V.065h5.66V10.2zm17.298 8.523L27.682 9.72l-1.275-1.926h-.052l.078 3.097v7.833h-5.205V.065h5.3l6.597 8.965.338.48.312.48a2.68 2.68 0 0 1 .234.416h.052c-.052-.382-.078-1.04-.078-1.978V.065h5.205v18.66h-4.93zM2.183 48.332v-18.66h11.62v4.398h-6v2.72h5.634v4.398H7.804v2.745h6.428v4.398H2.183zm27.2 0l-.82-3.435h-5.57l-.885 3.435h-6.076l6.428-18.66h6.974l6.05 18.66h-6.102zm-3.54-14.6h-.13c-.017.208-.078.55-.182 1.028l-1.574 6.14h3.565l-1.3-5.074a16.04 16.04 0 0 1-.377-2.095zm22.062.338v14.26h-5.647V34.07H37.04v-4.398h16.147v4.398h-5.283zM75.5 40.375a7.59 7.59 0 0 1-7.587 7.587 7.59 7.59 0 0 1-7.587-7.587 7.59 7.59 0 0 1 7.587-7.587 7.59 7.59 0 0 1 7.587 7.587z"/></svg>